PathFileType	4	(X/Y/Z)	OpenSim_Sub02_EMGBaseline_Magnet.trc
DataRate	CameraRate	NumFrames	NumMarkers	Units	OrigDataRate	OrigDataStartFrame	OrigNumFrames
100	100	20	8	m	100	5046	6727
Frame#	Time	torso_imu_offset_imu	pelvis_imu_offset_imu	tibia_r_imu_offset_imu	femur_r_imu_offset_imu	tibia_l_imu_offset_imu	femur_l_imu_offset_imu	toes_r_imu_offset_imu	toes_l_imu_offset_imu
				X1	Y1	Z1	X2	Y2	Z2	X3	Y3	Z3	X4	Y4	Z4	X5	Y5	Z5	X6	Y6	Z6	X7	Y7	Z7	X8		Y8	Z8	

5046	50.45000000	-0.91592912	-0.18376437	-0.02326257	-0.63419851	0.21373724	-0.63270345	-0.48502567	-0.55342149	-0.30555016	-0.84517770	-0.10013369	0.03980854	-0.61650056	0.53415693	0.04369661	-0.58075657	0.44930730	0.37551046	-0.58163351	-0.42119843	-0.37301727	-0.62668494	-0.15229134	-0.49566573
5047	50.46000000	-0.91633983	-0.18512578	-0.02581842	-0.63064495	0.21734560	-0.63244084	-0.51445822	-0.52840025	-0.31312948	-0.84345488	-0.10108802	0.03638121	-0.61205189	0.54280636	0.03886807	-0.57612196	0.45409391	0.38036112	-0.57347885	-0.40878197	-0.40187621	-0.62908681	-0.15137223	-0.49716446
5048	50.47000000	-0.91523143	-0.19127200	-0.02797236	-0.63133756	0.21686888	-0.63468281	-0.54265044	-0.49029377	-0.32486528	-0.84475367	-0.10125686	0.03320322	-0.60591628	0.54919550	0.03447411	-0.57102510	0.45471667	0.38628067	-0.56683407	-0.39313545	-0.43210537	-0.62961083	-0.16085962	-0.49736743
5049	50.48000000	-0.91202270	-0.18882446	-0.02904001	-0.63135780	0.21571677	-0.63241565	-0.57034138	-0.45057791	-0.32887641	-0.84662155	-0.10722803	0.03606651	-0.60350525	0.55457188	0.02733636	-0.57032101	0.46226902	0.38314181	-0.55957561	-0.37508947	-0.46470280	-0.63036200	-0.16035717	-0.49450745
5050	50.49000000	-0.91452026	-0.18722004	-0.02917885	-0.63058425	0.21543117	-0.63252958	-0.59584564	-0.41817895	-0.32172584	-0.84261437	-0.11411927	0.03410973	-0.59938659	0.55990997	0.02619245	-0.56535649	0.47016198	0.38416083	-0.54712573	-0.35794015	-0.48505268	-0.63364068	-0.16057197	-0.49338341
5051	50.50000000	-0.91323112	-0.19028490	-0.02752535	-0.63420746	0.21800030	-0.62616339	-0.61747404	-0.39315556	-0.31528150	-0.83709123	-0.12382578	0.02732505	-0.59141700	0.56641400	0.02112109	-0.56156502	0.47663142	0.38166763	-0.53982384	-0.33820029	-0.50520973	-0.63213303	-0.16048997	-0.49414565
5052	50.51000000	-0.91601262	-0.19104237	-0.02728501	-0.63229704	0.21969652	-0.62541997	-0.63784056	-0.36097583	-0.30725454	-0.83715722	-0.13325462	0.02590343	-0.58279928	0.57461164	0.01328583	-0.55679243	0.48241257	0.37698189	-0.53454527	-0.32398904	-0.52462329	-0.63598357	-0.16087790	-0.49136624
5053	50.52000000	-0.91783526	-0.19154150	-0.03014399	-0.63054836	0.21638426	-0.62813822	-0.66020371	-0.33612848	-0.29786395	-0.83304615	-0.14149763	0.02637912	-0.58092749	0.58091079	0.00831685	-0.55528999	0.48574617	0.37853405	-0.53372456	-0.30697565	-0.54079536	-0.63387005	-0.16655129	-0.48838741
5054	50.53000000	-0.91353309	-0.18946126	-0.03130930	-0.63365587	0.21652456	-0.63134564	-0.67233347	-0.32517936	-0.28034279	-0.82940466	-0.15579649	0.02754473	-0.57634051	0.58709893	0.00676066	-0.55285659	0.49342524	0.36742691	-0.53102487	-0.28422697	-0.55902028	-0.63200235	-0.16846355	-0.49005302
5055	50.54000000	-0.91118751	-0.19151335	-0.03038019	-0.63432602	0.21164698	-0.63572322	-0.68067479	-0.30965734	-0.26414464	-0.82714694	-0.16988554	0.02472711	-0.56344910	0.58970685	0.00144412	-0.54523416	0.50521313	0.36483007	-0.52717184	-0.27080496	-0.57068839	-0.63511806	-0.16832326	-0.49280753
5056	50.55000000	-0.91226688	-0.19023711	-0.03406043	-0.63348181	0.20645012	-0.62648135	-0.68968336	-0.29510878	-0.25704301	-0.82492907	-0.17879123	0.02497510	-0.55499546	0.60207815	-0.00384166	-0.54236065	0.50778499	0.36523668	-0.52285427	-0.26005469	-0.58275741	-0.63688379	-0.16755192	-0.48573800
5057	50.56000000	-0.91661133	-0.18764447	-0.04047134	-0.62987212	0.21490227	-0.62742661	-0.69877390	-0.28215443	-0.24970593	-0.82183902	-0.18593418	0.02930199	-0.54966893	0.61428641	-0.00777773	-0.54249423	0.51372465	0.35815121	-0.52109084	-0.24854828	-0.59187348	-0.64052777	-0.17230308	-0.47928047
5058	50.57000000	-0.91683154	-0.18763189	-0.04370848	-0.63493246	0.21436654	-0.63325331	-0.70629216	-0.27430250	-0.24214800	-0.81597024	-0.19169932	0.03384019	-0.54015345	0.61762494	-0.01085480	-0.54504654	0.52004977	0.36026959	-0.52117100	-0.24480744	-0.59335654	-0.63559861	-0.17314340	-0.47986323
5059	50.58000000	-0.91871889	-0.19027486	-0.04412488	-0.63523903	0.20833196	-0.63509276	-0.70591759	-0.26791307	-0.24178469	-0.81845678	-0.19152531	0.03989587	-0.53144878	0.62721781	-0.01050982	-0.54156874	0.51999815	0.35619643	-0.51577817	-0.23853195	-0.59893898	-0.64001541	-0.17098145	-0.48246146
5060	50.59000000	-0.91604542	-0.19137494	-0.04593564	-0.62776268	0.21045289	-0.63487676	-0.70850248	-0.27114095	-0.23663687	-0.81962764	-0.18764595	0.04433959	-0.52375044	0.63769257	-0.01287266	-0.54090512	0.52153875	0.35013745	-0.51489895	-0.23694877	-0.59941840	-0.63945487	-0.17326328	-0.48384391
5061	50.60000000	-0.91249107	-0.18994652	-0.05103155	-0.62821739	0.21352660	-0.62697456	-0.70305373	-0.28363224	-0.23101120	-0.81880455	-0.18606315	0.04788276	-0.51011733	0.64473518	-0.02116067	-0.54020226	0.52202173	0.34561091	-0.52603603	-0.24470222	-0.59063656	-0.63786011	-0.17179304	-0.48270601
5062	50.61000000	-0.91851869	-0.18851562	-0.05438292	-0.62691715	0.21055384	-0.62666599	-0.69528721	-0.29800459	-0.23027934	-0.82242093	-0.18330484	0.05718937	-0.49382687	0.65376122	-0.02846065	-0.53778782	0.52541495	0.34334802	-0.54288382	-0.25820859	-0.56888750	-0.64620342	-0.16910632	-0.47928416
5063	50.62000000	-0.92240691	-0.19029688	-0.05632854	-0.62510002	0.21503806	-0.62768323	-0.69185416	-0.31564014	-0.22845595	-0.82067888	-0.17611673	0.06189090	-0.48146508	0.66432468	-0.03467271	-0.54360170	0.52344261	0.33531950	-0.56182921	-0.26241042	-0.55528968	-0.64588732	-0.16935895	-0.47390673
5064	50.63000000	-0.91883006	-0.19040311	-0.05868193	-0.62783788	0.21045169	-0.62367834	-0.68350526	-0.33002911	-0.22598325	-0.81969720	-0.16398584	0.06759077	-0.46800970	0.67926606	-0.04088699	-0.54711388	0.52217162	0.32987061	-0.58812749	-0.23984911	-0.54299214	-0.65470894	-0.16310125	-0.47259366
5065	50.64000000	-0.91768449	-0.18822754	-0.06053535	-0.62944781	0.20685869	-0.62556028	-0.67422178	-0.34297279	-0.22033355	-0.82115683	-0.16018776	0.08052664	-0.44904938	0.69356096	-0.04888183	-0.55416755	0.52288104	0.32667281	-0.60766585	-0.25945515	-0.50995699	-0.66005219	-0.15574529	-0.46890939
